# AST/ASF file generated using VICON BodyLanguage
# -----------------------------------------------
:version 1.10
:name VICON
:units
  mass 1.0
  length 0.45
  angle deg
:documentation
   .ast/.asf automatically generated from VICON data using
   VICON BodyBuilder and BodyLanguage model FoxedUp or BRILLIANT.MOD
:root
   order TX TY TZ RX RY RZ
   axis XYZ
   position 0 0 0  
   orientation 0 -0 0 
:bonedata
  begin
     id 1 
     name lhipjoint
     direction 0.432694 -0.693742 0.575759 
     length 2.19277 
     axis 0 -0 0  XYZ
  end
  begin
     id 2 
     name lfemur
     direction 0.34202 -0.939693 0  
     length 6.69022  
     axis 0 -0 20  XYZ
    dof rx ry rz
    limits (-160.0 20.0)
           (-70.0 70.0)
           (-60.0 70.0)
  end
  begin
     id 3 
     name ltibia
     direction 0.34202 -0.939693 0   
     length 6.50337   
     axis 0 -0 20   XYZ
    dof rx
    limits (-10.0 170.0)
  end
  begin
     id 4 
     name lfoot
     direction 0.158999 -0.435969 0.885805   
     length 2.70564   
     axis -90 -1.13533e-015 20   XYZ
    dof rx rz
    limits (-45.0 90.0)
           (-70.0 20.0)
  end
  begin
     id 5 
     name ltoes
     direction -0.00592919 0.00964381 0.999936   
     length 1.29929   
     axis -90 -1.13533e-015 20   XYZ
    dof rx
    limits (-90.0 20.0)
  end
  begin
     id 6 
     name rhipjoint
     direction -0.414359 -0.700339 0.581234   
     length 2.17212  
     axis 0 -0 0  XYZ 
  end
  begin
     id 7 
     name rfemur
     direction -0.34202 -0.939693 0   
     length 7.17659   
     axis 0 -0 -20   XYZ
    dof rx ry rz
    limits (-160.0 20.0)
           (-70.0 70.0)
           (-70.0 60.0)
  end
  begin
     id 8 
     name rtibia
     direction -0.34202 -0.939693 0   
     length 6.36669   
     axis 0 -0 -20   XYZ
    dof rx
    limits (-10.0 170.0)
 end
 begin
     id 9 
     name rfoot
     direction -0.137064 -0.37658 0.916188   
     length 2.22351  
     axis -90 1.13533e-015 -20   XYZ
    dof rx rz
    limits (-45.0 90.0)
           (-20.0 70.0)
  end
  begin
     id 10 
     name rtoes
     direction -0.000784077 -0.00289101 0.999996   
     length 1.09522   
     axis -90 1.13533e-015 -20   XYZ
    dof rx
    limits (-90.0 20.0)
  end
  begin
     id 11 
     name lowerback
     direction -0.0176242 0.984912 -0.172157   
     length 1.65301   
     axis 0 -0 0   XYZ
    dof rx ry rz
    limits (-20.0 45.0)
           (-30.0 30.0)
           (-30.0 30.0)
  end
  begin
     id 12 
     name upperback
     direction -0.00218128 0.998776 -0.0494072   
     length 1.67776   
     axis 0 -0 0   XYZ
    dof rx ry rz
    limits (-20.0 45.0)
           (-30.0 30.0)
           (-30.0 30.0)
  end
  begin
     id 13 
     name thorax
     direction 0.00544186 0.999658 0.0255711   
     length 1.72293   
     axis 0 -0 0   XYZ
    dof rx ry rz
    limits (-20.0 45.0)
           (-30.0 30.0)
           (-30.0 30.0)
  end
  begin
     id 14 
     name lowerneck
     direction -0.105325 0.983841 0.144785   
     length 2.14226   
     axis 0 -0 0   XYZ
    dof rx ry rz
    limits (-20.0 45.0)
           (-30.0 30.0)
           (-30.0 30.0)
  end
  begin
     id 15 
     name upperneck
     direction 0.0547957 0.988053 -0.144041   
     length 2.17508   
     axis 0 -0 0   XYZ
    dof rx ry rz
    limits (-20.0 45.0)
           (-30.0 30.0)
           (-30.0 30.0)
  end
  begin
     id 16
     name head
     direction 0.0247488 0.997534 -0.0656813  
     length 2.20048  
     axis 0 -0 0   XYZ
    dof rx ry rz
    limits (-20.0 45.0)
           (-30.0 30.0)
           (-30.0 30.0)
  end
  begin
     id 17 
     name lclavicle
     direction 0.820559 0.567247 -0.0701026  
     length 4.09615  
     axis 0 -0 0   XYZ
    dof ry rz
    limits (-20.0 10.0)
           (0.0 20.0)
  end
  begin
     id 18 
     name lhumerus
     direction 0.999977 -0.0067566 -9.96392e-005   
     length 4.59333   
     axis -180 -30 -90   XYZ
    dof rx ry rz
    limits (-60.0 90.0)
           (-90.0 90.0)
           (-90.0 90.0)
  end
  begin
     id 19
     name lradius
     direction 1 -4.48982e-011 -2.53425e-027   
     length 2.81151   
     axis -180 -30 -90   XYZ
    dof rx
    limits (-10.0 170.0)
  end
  begin
     id 20
     name lwrist
     direction 1 -4.48939e-011 -7.39254e-028   
     length 1.40576   
     axis 2.56395e-016 90 90   XYZ
    dof ry
    limits (-180.0 0.0)
 end
  begin
     id 21 
     name lhand
     direction 1 -4.48939e-011 -1.47851e-027   
     length 0.895651   
     axis 9.43423e-016 90 90   XYZ
    dof rx rz
    limits (-90.0 90.0)
           (-45.0 45.0)
  end
  begin
     id 22 
     name lfingers
     direction 1 -4.48978e-011 -2.95702e-027   
     length 0.722097   
     axis 1.88685e-015 90 90   XYZ
    dof rx
    limits (0.0 90.0)
  end
  begin
     id 23
     name lthumb
     direction 0.707107 -6.34931e-011 0.707107   
     length 1.03679   
     axis -90 45 -9.86935e-015   XYZ
    dof rx rz
    limits (-45.0 45.0)
           (-45.0 45.0)
  end
  begin
     id 24 
     name rclavicle
     direction -0.831414 0.553102 -0.0531864   
     length 4.24872  
     axis 0 -0 0   XYZ 
    dof ry rz
    limits (-10.0 20.0)
           (-20.0 0.0)
  end
  begin
     id 25 
     name rhumerus
     direction -0.999916 -0.000939607 0.0129331  
     length 4.74834   
     axis -180 30 90   XYZ
    dof rx ry rz
    limits (-90.0 60.0)
           (-90.0 90.0)
           (-90.0 90.0)
  end
  begin
     id 26 
     name rradius
     direction -1 -4.48956e-011 -1.31752e-027   
     length 2.79907   
     axis -180 30 90   XYZ
    dof rx
    limits (-10.0 170.0)
  end
  begin
     id 27 
     name rwrist
     direction -1 -4.4897e-011 -7.39254e-028   
     length 1.39954   
     axis 2.56395e-016 -90 -90   XYZ
    dof ry
    limits (-180.0 0.0)
  end
  begin
     id 28
     name rhand
     direction -0.999997 -0.00250697 0.000800838   
     length 0.953304   
     axis 9.43423e-016 -90 -90   XYZ
    dof rx rz
    limits (-90.0 90.0)
           (-45.0 45.0)
  end
  begin
     id 29
     name rfingers
     direction -1 -4.48954e-011 -2.95702e-027   
     length 0.763342   
     axis 1.88685e-015 -90 -90   XYZ
    dof rx
    limits (0.0 90.0)
  end
  begin
     id 30
     name rthumb
     direction -0.709701 -0.00217037 0.7045   
     length 1.10115   
     axis -90 -45 9.86935e-015   XYZ
    dof rx rz
    limits (-45.0 45.0)
           (-45.0 45.0)
  end
:hierarchy
  begin
    root lhipjoint rhipjoint lowerback
    lhipjoint lfemur
    lfemur ltibia
    ltibia lfoot
    lfoot ltoes
    rhipjoint rfemur
    rfemur rtibia
    rtibia rfoot
    rfoot rtoes
    lowerback upperback
    upperback thorax
    thorax lowerneck lclavicle rclavicle
    lowerneck upperneck
    upperneck head
    lclavicle lhumerus
    lhumerus lradius
    lradius lwrist
    lwrist lhand lthumb
    lhand lfingers
    rclavicle rhumerus
    rhumerus rradius
    rradius rwrist
    rwrist rhand rthumb
    rhand rfingers
  end

#!OML:ASF G:\ViconDB\ViconDB\414\test\team2\shane.ASF
:FULLY-SPECIFIED
:DEGREES
63
root 5.49217 16.2782 -26.5043 -5.33499 -0.847273 -2.06809
lowerback 7.27545 4.06698 1.34835
upperback 4.82596 5.50242 -3.62262
thorax 1.42351 2.85784 -4.80963
lowerneck -15.2364 -10.2045 -13.1487
upperneck 18.0863 -15.712 20.2039
head 11.2034 -6.25452 7.06468
rclavicle 1.61016e-014 3.18055e-015
rhumerus -28.9422 14.6072 -97.5824
rradius 25.5822
rwrist 40.531
rhand -28.2286 -12.5132
rfingers 7.12502
rthumb -1.60667 -42.4869
lclavicle 1.61016e-014 3.18055e-015
lhumerus -32.4658 -5.5081 89.1732
lradius 19.6788
lwrist -15.6465
lhand -39.3433 7.25003
lfingers 7.12502
lthumb -12.3347 36.8662
rfemur 10.7171 -12.8936 10.4874
rtibia 61.0548
rfoot -0.416488 -7.44207
rtoes -10.2158
lfemur -15.137 5.87573 -14.9923
ltibia 46.3177
lfoot -29.0549 -11.4462
ltoes -4.9994
64
root 5.51692 16.2628 -26.342 -5.60504 -0.867579 -1.92584
lowerback 7.35651 3.83487 1.11003
upperback 5.0152 5.18269 -3.59023
thorax 1.5199 2.69423 -4.62655
lowerneck -15.3016 -10.018 -13.1155
upperneck 18.0458 -15.4468 20.2498
head 11.1505 -6.12601 7.12614
rclavicle -6.04305e-014 1.11319e-014
rhumerus -29.8459 15.3576 -97.704
rradius 25.9194
rwrist 40.1794
rhand -28.49 -12.8123
rfingers 7.12502
rthumb -1.85919 -42.784
lclavicle -6.04305e-014 1.11319e-014
lhumerus -32.0232 -6.07859 89.7805
lradius 19.7704
lwrist -16.2619
lhand -39.573 8.34323
lfingers 7.12502
lthumb -12.5561 37.9459
rfemur 8.93847 -13.3613 10.1167
rtibia 63.6906
rfoot -1.71898 -7.36928
rtoes -10.4418
lfemur -14.2759 5.8205 -15.1757
ltibia 46.4326
lfoot -29.514 -11.2525
ltoes -5.14595
65
root 5.5408 16.235 -26.1824 -5.92568 -0.955754 -1.81411
lowerback 7.23199 3.64127 0.826172
upperback 5.39058 4.91985 -3.50219
thorax 1.9226 2.56244 -4.33976
lowerneck -15.5459 -9.9037 -13.0136
upperneck 17.9881 -15.2427 20.1418
head 11.1158 -6.02385 7.09615
rclavicle -4.29375e-014 3.81667e-014
rhumerus -30.3671 15.7787 -97.6321
rradius 26.191
rwrist 39.5536
rhand -28.807 -12.8214
rfingers 7.12502
rthumb -2.16528 -42.7901
lclavicle -4.29375e-014 3.81667e-014
lhumerus -31.1342 -6.29175 90.1384
lradius 19.5261
lwrist -18.1378
lhand -40.4563 8.41537
lfingers 7.12502
lthumb -13.4076 37.9639
rfemur 7.23014 -13.6831 9.83275
rtibia 66.0666
rfoot -3.10091 -7.25297
rtoes -11.2342
lfemur -13.3407 5.8117 -15.2879
ltibia 46.5761
lfoot -30.0551 -11.0481
ltoes -5.16864
66
root 5.5637 16.216 -26.0251 -6.22455 -0.941114 -1.63611
lowerback 7.23463 3.34727 0.534513
upperback 5.62994 4.5181 -3.43647
thorax 2.10757 2.35481 -4.08215
lowerneck -15.6081 -9.69742 -13.1252
upperneck 17.9832 -14.9231 20.2022
head 11.0783 -5.87858 7.20048
rclavicle -1.47101e-014 1.59028e-014
rhumerus -31.0443 15.9818 -97.4841
rradius 26.3663
rwrist 39.5431
rhand -29.166 -12.757
rfingers 7.12502
rthumb -2.51204 -42.7219
lclavicle -1.47101e-014 1.59028e-014
lhumerus -30.4681 -6.0768 90.3538
lradius 19.5075
lwrist -19.8159
lhand -41.0047 8.19436
lfingers 7.12502
lthumb -13.9362 37.7073
rfemur 5.486 -14.0652 9.51088
rtibia 68.2129
rfoot -4.31576 -6.87695
rtoes -11.4505
lfemur -12.467 5.74054 -15.5033
ltibia 46.7039
lfoot -30.5738 -10.8834
ltoes -5.34031
67
root 5.58278 16.1876 -25.8716 -6.62644 -1.03692 -1.5421
lowerback 7.28389 3.1689 0.262767
upperback 5.95974 4.27435 -3.39866
thorax 2.38233 2.22867 -3.87249
lowerneck -15.77 -9.51359 -12.828
upperneck 17.8452 -14.6656 20.1102
head 10.9742 -5.74444 7.15135
rclavicle -1.41137e-014 3.18055e-015
rhumerus -31.586 15.8838 -97.3764
rradius 26.622
rwrist 39.2936
rhand -29.5933 -12.8002
rfingers 7.12502
rthumb -2.9247 -42.7599
lclavicle -1.41137e-014 3.18055e-015
lhumerus -29.7293 -6.48824 90.5066
lradius 19.4519
lwrist -22.6618
lhand -41.6763 10.0673
lfingers 7.12502
lthumb -14.5833 39.5347
rfemur 3.83206 -14.3205 9.38497
rtibia 70.119
rfoot -5.9236 -6.46904
rtoes -12.7217
lfemur -11.4302 5.68841 -15.5679
ltibia 46.8483
lfoot -31.19 -10.6886
ltoes -5.4633
68
root 5.60117 16.1651 -25.7209 -6.99343 -1.32112 -1.47866
lowerback 7.46337 2.96883 0.113322
upperback 6.13979 3.99948 -3.31652
thorax 2.43457 2.08531 -3.6967
lowerneck -15.8952 -9.24835 -12.6921
upperneck 17.9549 -14.2626 19.8774
head 10.923 -5.56228 7.11539
rclavicle 5.36719e-015 1.74931e-014
rhumerus -32.3593 15.888 -97.2524
rradius 26.888
rwrist 39.0184
rhand -29.9469 -13.0597
rfingers 7.12502
rthumb -3.26622 -43.0145
lclavicle 5.36719e-015 1.74931e-014
lhumerus -29.0517 -6.79938 90.7467
lradius 19.6281
lwrist -23.199
lhand -42.0683 10.5307
lfingers 7.12502
lthumb -14.9609 39.9703
rfemur 2.06071 -14.3113 9.42764
rtibia 71.7804
rfoot -7.47514 -6.03354
rtoes -12.9064
lfemur -10.4095 5.57644 -15.6108
ltibia 46.9445
lfoot -31.6514 -10.3385
ltoes -5.71056
